<?xml version="1.0" encoding="UTF-8" ?>
<!DOCTYPE svg PUBLIC "-//W3C//DTD SVG 1.1//EN" "http://www.w3.org/Graphics/SVG/1.1/DTD/svg11.dtd">
<svg width="48" height="48" viewBox="0 0 48 48" version="1.1" xmlns="http://www.w3.org/2000/svg">
<path fill="#000000" d=" M 18.40 1.60 C 30.63 -1.64 44.20 7.59 45.74 20.13 C 47.69 31.10 40.10 42.43 29.40 45.22 C 20.60 47.79 10.63 44.08 5.29 36.71 C 1.31 31.31 0.01 24.07 1.79 17.60 C 3.85 9.77 10.54 3.44 18.40 1.60 Z" />
<!--<path fill="#ffffff" d=" M 6.18 21.15 C 6.67 16.24 9.74 12.04 13.69 9.26 C 13.92 12.16 13.93 15.06 14.27 17.95 C 15.08 25.17 21.10 31.47 28.29 32.57 C 31.42 33.05 34.59 33.09 37.73 33.42 C 33.98 39.01 26.99 42.00 20.37 40.66 C 11.46 39.25 4.71 30.07 6.18 21.15 Z" />-->
</svg>